<svg width="982" height="293" viewBox="0 0 982 293" fill="none" xmlns="http://www.w3.org/2000/svg">
<g clip-path="url(#clip0)">
<path d="M702.832 232.453C693.867 243.189 681.195 251.545 664.814 257.521C648.434 263.387 630.283 266.32 610.361 266.32C589.443 266.32 571.071 261.783 555.244 252.707C539.528 243.521 527.354 230.24 518.721 212.863C510.199 195.487 505.827 175.067 505.605 151.604V135.168C505.605 111.04 509.645 90.1777 517.725 72.5801C525.915 54.8717 537.646 41.3691 552.92 32.0723C568.304 22.6647 586.289 17.9609 606.875 17.9609C635.54 17.9609 657.952 24.8229 674.111 38.5469C690.27 52.1602 699.844 72.0267 702.832 98.1465H654.355C652.142 84.3118 647.217 74.1849 639.58 67.7656C632.054 61.3464 621.65 58.1367 608.369 58.1367C591.436 58.1367 578.542 64.5007 569.688 77.2285C560.833 89.9564 556.351 108.882 556.24 134.006V149.445C556.24 174.79 561.055 193.938 570.684 206.887C580.312 219.836 594.424 226.311 613.018 226.311C631.722 226.311 645.059 222.326 653.027 214.357V172.688H607.705V135.998H702.832V232.453Z" fill="white"/>
<path d="M702.832 232.453L708.205 236.94L709.832 234.991V232.453H702.832ZM664.814 257.521L667.174 264.112L667.194 264.105L667.214 264.097L664.814 257.521ZM555.244 252.707L551.712 258.75L551.737 258.765L551.762 258.779L555.244 252.707ZM518.721 212.863L512.436 215.946L512.444 215.962L512.452 215.978L518.721 212.863ZM505.605 151.604H498.605V151.637L498.606 151.67L505.605 151.604ZM517.725 72.5801L511.371 69.6416L511.367 69.6505L511.363 69.6594L517.725 72.5801ZM552.92 32.0723L556.56 38.0517L556.566 38.0479L556.572 38.0442L552.92 32.0723ZM674.111 38.5469L669.58 43.8823L669.591 43.8913L669.601 43.9003L674.111 38.5469ZM702.832 98.1465V105.146H710.679L709.787 97.3508L702.832 98.1465ZM654.355 98.1465L647.443 99.2524L648.386 105.146H654.355V98.1465ZM639.58 67.7656L635.037 73.0915L635.057 73.1078L635.076 73.124L639.58 67.7656ZM569.688 77.2285L563.941 73.2311L569.688 77.2285ZM556.24 134.006L549.24 133.975L549.24 133.99V134.006H556.24ZM653.027 214.357L657.977 219.307L660.027 217.257V214.357H653.027ZM653.027 172.688H660.027V165.688H653.027V172.688ZM607.705 172.688H600.705V179.688H607.705V172.688ZM607.705 135.998V128.998H600.705V135.998H607.705ZM702.832 135.998H709.832V128.998H702.832V135.998ZM697.459 227.966C689.457 237.549 677.92 245.288 662.415 250.946L667.214 264.097C684.469 257.801 698.277 248.828 708.205 236.94L697.459 227.966ZM662.454 250.931C646.933 256.49 629.594 259.32 610.361 259.32V273.32C630.973 273.32 649.936 270.285 667.174 264.112L662.454 250.931ZM610.361 259.32C590.484 259.32 573.346 255.018 558.726 246.635L551.762 258.779C568.796 268.547 588.403 273.32 610.361 273.32V259.32ZM558.777 246.664C544.317 238.212 533.057 225.987 524.99 209.749L512.452 215.978C521.65 234.492 534.739 248.829 551.712 258.75L558.777 246.664ZM525.006 209.781C517.032 193.522 512.819 174.173 512.605 151.537L498.606 151.67C498.835 175.961 503.366 197.452 512.436 215.946L525.006 209.781ZM512.605 151.604V135.168H498.605V151.604H512.605ZM512.605 135.168C512.605 111.807 516.518 91.9858 524.086 75.5008L511.363 69.6594C502.773 88.3697 498.605 110.273 498.605 135.168H512.605ZM524.078 75.5185C531.741 58.9505 542.58 46.5607 556.56 38.0517L549.28 26.0929C532.713 36.1776 520.089 50.7929 511.371 69.6416L524.078 75.5185ZM556.572 38.0442C570.708 29.4 587.391 24.9609 606.875 24.9609V10.9609C585.187 10.9609 565.9 15.9294 549.268 26.1004L556.572 38.0442ZM606.875 24.9609C634.467 24.9609 655.071 31.5599 669.58 43.8823L678.643 33.2115C660.834 18.0859 636.614 10.9609 606.875 10.9609V24.9609ZM669.601 43.9003C684.079 56.0976 693.04 74.1431 695.877 98.9421L709.787 97.3508C706.647 69.9103 696.461 48.2227 678.621 33.1934L669.601 43.9003ZM702.832 91.1465H654.355V105.146H702.832V91.1465ZM661.268 97.0406C658.895 82.2118 653.445 70.2757 644.084 62.4072L635.076 73.124C640.989 78.0941 645.389 86.4119 647.443 99.2524L661.268 97.0406ZM644.123 62.4398C634.952 54.6179 622.741 51.1367 608.369 51.1367V65.1367C620.56 65.1367 629.156 68.0748 635.037 73.0915L644.123 62.4398ZM608.369 51.1367C589.392 51.1367 574.239 58.4276 563.941 73.2311L575.434 81.226C582.844 70.5737 593.479 65.1367 608.369 65.1367V51.1367ZM563.941 73.2311C553.915 87.6435 549.354 108.236 549.24 133.975L563.24 134.037C563.348 109.529 567.752 92.2693 575.434 81.226L563.941 73.2311ZM549.24 134.006V149.445H563.24V134.006H549.24ZM549.24 149.445C549.24 175.495 554.157 196.393 565.066 211.064L576.301 202.71C567.952 191.482 563.24 174.086 563.24 149.445H549.24ZM565.066 211.064C576.23 226.076 592.595 233.311 613.018 233.311V219.311C596.253 219.311 584.395 213.596 576.301 202.71L565.066 211.064ZM613.018 233.311C632.418 233.311 648.056 229.228 657.977 219.307L648.078 209.408C642.061 215.424 631.026 219.311 613.018 219.311V233.311ZM660.027 214.357V172.688H646.027V214.357H660.027ZM653.027 165.688H607.705V179.688H653.027V165.688ZM614.705 172.688V135.998H600.705V172.688H614.705ZM607.705 142.998H702.832V128.998H607.705V142.998ZM695.832 135.998V232.453H709.832V135.998H695.832Z" fill="white"/>
<path d="M480.852 29.2812V187.494C480.852 205.424 477.033 220.974 469.396 234.145C461.76 247.204 450.803 257.165 436.525 264.027C422.248 270.889 405.37 274.32 385.891 274.32C356.451 274.32 333.264 266.684 316.33 251.41C299.396 236.137 290.764 215.219 290.432 188.656V29.2812H349.035V189.818C349.699 216.27 361.984 229.496 385.891 229.496C397.954 229.496 407.085 226.176 413.283 219.535C419.481 212.895 422.58 202.104 422.58 187.162V29.2812H480.852Z" fill="white"/>
<path d="M480.852 29.2812H481.852V28.2812H480.852V29.2812ZM469.396 234.145L470.26 234.649L470.262 234.646L469.396 234.145ZM290.432 188.656H289.432L289.432 188.669L290.432 188.656ZM290.432 29.2812V28.2812H289.432V29.2812H290.432ZM349.035 29.2812H350.035V28.2812H349.035V29.2812ZM349.035 189.818H348.035V189.831L348.035 189.843L349.035 189.818ZM422.58 29.2812V28.2812H421.58V29.2812H422.58ZM479.852 29.2812V187.494H481.852V29.2812H479.852ZM479.852 187.494C479.852 205.279 476.065 220.65 468.531 233.643L470.262 234.646C478.001 221.298 481.852 205.568 481.852 187.494H479.852ZM468.533 233.64C461.002 246.519 450.199 256.346 436.092 263.126L436.959 264.929C451.407 257.985 462.517 247.89 470.26 234.649L468.533 233.64ZM436.092 263.126C421.977 269.91 405.254 273.32 385.891 273.32V275.32C405.486 275.32 422.519 271.869 436.959 264.929L436.092 263.126ZM385.891 273.32C356.624 273.32 333.701 265.732 317 250.668L315.66 252.153C332.826 267.636 356.277 275.32 385.891 275.32V273.32ZM317 250.668C300.308 235.612 291.761 214.978 291.432 188.644L289.432 188.669C289.767 215.46 298.485 236.661 315.66 252.153L317 250.668ZM291.432 188.656V29.2812H289.432V188.656H291.432ZM290.432 30.2812H349.035V28.2812H290.432V30.2812ZM348.035 29.2812V189.818H350.035V29.2812H348.035ZM348.035 189.843C348.371 203.202 351.643 213.398 358.014 220.257C364.402 227.134 373.754 230.496 385.891 230.496V228.496C374.121 228.496 365.377 225.245 359.48 218.896C353.566 212.529 350.364 202.887 350.035 189.793L348.035 189.843ZM385.891 230.496C398.136 230.496 407.571 227.121 414.014 220.217L412.552 218.853C406.6 225.23 397.772 228.496 385.891 228.496V230.496ZM414.014 220.217C420.467 213.304 423.58 202.203 423.58 187.162H421.58C421.58 202.004 418.495 212.485 412.552 218.853L414.014 220.217ZM423.58 187.162V29.2812H421.58V187.162H423.58ZM422.58 30.2812H480.852V28.2812H422.58V30.2812Z" fill="white"/>
<path d="M761.239 247.296L829.678 98.5781L897.456 247.681L761.239 247.296Z" stroke="white" stroke-width="60"/>
<path d="M235.987 51.1104L152.771 225.684L66.0215 53.3155L235.987 51.1104Z" stroke="white" stroke-width="46"/>
</g>
<defs>
<clipPath id="clip0">
<rect width="982" height="293" fill="white"/>
</clipPath>
</defs>
</svg>
